<?xml version="1.0" encoding="UTF-8" standalone="no"?>
<!-- Generator: Adobe Illustrator 23.0.1, SVG Export Plug-In . SVG Version: 6.00 Build 0)  -->

<svg
   xmlns:dc="http://purl.org/dc/elements/1.1/"
   xmlns:cc="http://creativecommons.org/ns#"
   xmlns:rdf="http://www.w3.org/1999/02/22-rdf-syntax-ns#"
   xmlns:svg="http://www.w3.org/2000/svg"
   xmlns="http://www.w3.org/2000/svg"
   xmlns:xlink="http://www.w3.org/1999/xlink"
   xmlns:sodipodi="http://sodipodi.sourceforge.net/DTD/sodipodi-0.dtd"
   xmlns:inkscape="http://www.inkscape.org/namespaces/inkscape"
   version="1.1"
   id="Layer_1"
   x="0px"
   y="0px"
   viewBox="0 0 450 280"
   xml:space="preserve"
   sodipodi:docname="qosf_colour_logo.svg"
   width="450"
   height="280"
   inkscape:version="0.92.4 (5da689c313, 2019-01-14)"><metadata
   id="metadata37"><rdf:RDF><cc:Work
       rdf:about=""><dc:format>image/svg+xml</dc:format><dc:type
         rdf:resource="http://purl.org/dc/dcmitype/StillImage" /><dc:title /></cc:Work></rdf:RDF></metadata><defs
   id="defs35"><linearGradient
     id="SVGID_2_"
     gradientUnits="userSpaceOnUse"
     x1="140.53371"
     y1="234.1246"
     x2="274.7641"
     y2="234.1246"
     gradientTransform="matrix(1,0,0,-1,0,502)"><stop
       offset="0"
       style="stop-color:#883A8A"
       id="stop11" /><stop
       offset="0.1652"
       style="stop-color:#843886"
       id="stop13" /><stop
       offset="0.3365"
       style="stop-color:#783379"
       id="stop15" /><stop
       offset="0.5105"
       style="stop-color:#632A65"
       id="stop17" /><stop
       offset="0.6864"
       style="stop-color:#471E48"
       id="stop19" /><stop
       offset="0.8621"
       style="stop-color:#220F23"
       id="stop21" /><stop
       offset="1"
       style="stop-color:#000000"
       id="stop23" /></linearGradient><linearGradient
     id="SVGID_1_"
     gradientUnits="userSpaceOnUse"
     x1="554.29071"
     y1="-3.0987"
     x2="554.63123"
     y2="-2.7581999"
     gradientTransform="matrix(721.094,0,0,482.937,-399651.25,1640.7534)"><stop
       offset="0"
       style="stop-color:#C9CCCE"
       id="stop4" /><stop
       offset="1"
       style="stop-color:#0a8a19;stop-opacity:0.97647059"
       id="stop6" /></linearGradient><radialGradient
     inkscape:collect="always"
     xlink:href="#SVGID_2_"
     id="radialGradient6214"
     cx="13.339844"
     cy="569.89453"
     fx="13.339844"
     fy="569.89453"
     r="11.956785"
     gradientTransform="matrix(1,0,0,1.4320572,0,-246.22705)"
     gradientUnits="userSpaceOnUse" /><linearGradient
     inkscape:collect="always"
     xlink:href="#SVGID_1_"
     id="linearGradient6276"
     x1="-154.51865"
     y1="744.86127"
     x2="205.8644"
     y2="744.86127"
     gradientUnits="userSpaceOnUse"
     spreadMethod="pad"
     gradientTransform="matrix(0.64223805,0,0,0.64223805,280.68754,-213.9022)" /></defs><sodipodi:namedview
   pagecolor="#ffffff"
   bordercolor="#666666"
   borderopacity="1"
   objecttolerance="10"
   gridtolerance="10"
   guidetolerance="10"
   inkscape:pageopacity="0"
   inkscape:pageshadow="2"
   inkscape:window-width="1850"
   inkscape:window-height="1016"
   id="namedview33"
   showgrid="false"
   inkscape:zoom="2.3177389"
   inkscape:cx="336.2245"
   inkscape:cy="98.530963"
   inkscape:window-x="70"
   inkscape:window-y="27"
   inkscape:window-maximized="0"
   inkscape:current-layer="g30"><sodipodi:guide
     position="0,0"
     orientation="0,404.70001"
     id="guide3761"
     inkscape:locked="false" /><sodipodi:guide
     position="404.70001,0"
     orientation="-256,0"
     id="guide3763"
     inkscape:locked="false" /><sodipodi:guide
     position="404.70001,256"
     orientation="0,-404.70001"
     id="guide3765"
     inkscape:locked="false" /><sodipodi:guide
     position="0,256"
     orientation="256,0"
     id="guide3767"
     inkscape:locked="false" /></sodipodi:namedview>
<style
   type="text/css"
   id="style2">
	.st0{fill:#659ED5;}
	.st1{stroke:#545554;stroke-miterlimit:10;}
	.st2{fill:#FFCD5F;}
	.st3{fill:#FFFFFF;}
	.st4{fill:#434343;}
	.st5{fill:#969696;}
</style>
<g
   id="g30"
   transform="translate(-177.29999,-150.90169)">
	
	
	
	
	
	
	
	
	
	
	
	
	
<path
   inkscape:connector-curvature="0"
   class="st0"
   d="m 297.17564,341.61443 c -63.68453,0 -115.25669,-34.52152 -115.25669,-77.13839 0,-42.61687 51.57216,-77.13839 115.25669,-77.13839 63.68453,0 115.25669,34.52152 115.25669,77.13839 0,42.61687 -51.57216,77.13839 -115.25669,77.13839 z m 17.60077,-124.1286 c -48.35482,0 -87.62537,23.54162 -87.62537,52.66625 0,29.12463 39.27055,52.66626 87.62537,52.66626 48.35483,0 84.12414,-16.09763 84.12414,-52.66626 0.0946,-36.47557 -35.67469,-52.66625 -84.12414,-52.66625 z"
   id="path9"
   style="fill:url(#linearGradient6276);fill-opacity:1;stroke:#659e33;stroke-width:0.93830973;stroke-miterlimit:4;stroke-dasharray:0, 10.3214076;stroke-dashoffset:0;stroke-opacity:1" /><path
   inkscape:connector-curvature="0"
   class="st1"
   d="m 368.99816,317.79365 c -1.7033,-1.861 -4.16362,-3.25675 -5.58304,-4.00115 -4.069,-2.0471 -10.97684,-4.18725 -10.97684,-4.18725 0,0 34.34991,-2.51234 34.34991,-36.66167 0,-34.14933 -35.95857,-34.80068 -35.95857,-34.80068 h -78.82499 v 129.43246 h 39.17593 v -50.52611 c 0,0 8.98964,0 10.50368,0 2.17644,0 3.12273,0.65135 5.29916,2.41929 2.64958,2.14016 6.90783,9.39805 6.90783,9.39805 l 20.7235,38.89487 h 44.38045 l -27.44207,-46.24581 c 0,-0.093 -0.85165,-1.86101 -2.55495,-3.722 z m -33.68751,-29.49683 h -23.75159 v -21.95978 h 23.75159 c 0,0 10.97683,-0.5583 10.97683,10.79379 0,11.16599 -10.97683,11.16599 -10.97683,11.16599 z"
   id="path26"
   style="fill:#659ed5;fill-opacity:1;stroke:#659ed5;stroke-width:0.93830973;stroke-miterlimit:10;stroke-dasharray:0, 10.32140735;stroke-dashoffset:0;stroke-opacity:1" /><flowRoot
   xml:space="preserve"
   id="flowRoot4702"
   style="fill:black;fill-opacity:1;stroke:none;font-family:sans-serif;font-style:normal;font-weight:normal;font-size:40px;line-height:1.25;letter-spacing:0px;word-spacing:0px"><flowRegion
     id="flowRegion4704"><rect
       id="rect4706"
       width="214.77966"
       height="210.50847"
       x="-230.64407"
       y="349.55933" /></flowRegion><flowPara
     id="flowPara4708" /></flowRoot><path
   inkscape:connector-curvature="0"
   class="st1"
   d="m 492.30485,310.96706 c -3.76357,-2.0471 -2.02744,7.71199 -2.02744,7.71199 0,0 28.55247,-3.79587 28.55247,-37.94519 0,-34.14933 -28.01294,-41.22914 -28.01294,-41.22914 h -72.90809 v 129.43245 h 36.23524 v -50.52611 c 40.9101,-21.6665 -3.18209,-4.87873 -3.18209,-4.87873 l -4.22669,-7.24801 -5.14718,13.5759 48.68928,-1.18117 c 9.3922,-6.00024 2.15969,-7.53883 2.02744,-7.71199 z m -15.84197,-21.30843 h -21.9687 v -21.95977 h 21.9687 c 0,0 10.15287,-0.5583 10.15287,10.79379 0,11.16598 -10.15287,11.16598 -10.15287,11.16598 z"
   id="path26-1"
   style="fill:#659ed5;fill-opacity:1;stroke:#659ed5;stroke-width:0.90240633;stroke-miterlimit:10;stroke-dasharray:0, 9.92646970999999922;stroke-dashoffset:0;stroke-opacity:1"
   sodipodi:nodetypes="ccsccccccccccccccsc" /><path
   inkscape:connector-curvature="0"
   class="st1"
   d="m 599.96801,310.22392 c -3.76357,-2.0471 -2.02744,7.71199 -2.02744,7.71199 0,0 28.55247,-3.79587 28.55247,-37.94519 0,-34.14933 -28.01294,-41.22914 -28.01294,-41.22914 h -72.90809 v 129.43245 h 36.23524 v -50.52611 c 40.9101,-21.6665 -3.18209,-4.87873 -3.18209,-4.87873 l -4.22669,-7.24801 -5.14718,13.5759 48.68928,-1.18117 c 9.3922,-6.00024 2.15969,-7.53883 2.02744,-7.71199 z m -15.84197,-21.30843 h -21.9687 v -21.95977 h 21.9687 c 0,0 10.15287,-0.5583 10.15287,10.79379 0,11.16598 -10.15287,11.16598 -10.15287,11.16598 z"
   id="path26-1-6"
   style="fill:#659ed5;fill-opacity:1;stroke:#659ed5;stroke-width:0.90240633;stroke-miterlimit:10;stroke-dasharray:0, 9.92646970999999922;stroke-dashoffset:0;stroke-opacity:1"
   sodipodi:nodetypes="ccsccccccccccccccsc" /></g>
</svg>